<?xml version="1.0" encoding="utf-8"?>
<!DOCTYPE svg PUBLIC "-//W3C//DTD SVG 1.1//EN" "http://www.w3.org/Graphics/SVG/1.1/DTD/svg11.dtd">
<svg xmlns="http://www.w3.org/2000/svg" xmlns:xlink="http://www.w3.org/1999/xlink" version="1.1" baseProfile="full" width="24" height="24" viewBox="0 0 24.00 24.00" enable-background="new 0 0 24.00 24.00" xml:space="preserve">
	<path fill="#000000" fill-opacity="1" stroke-width="0.2" stroke-linejoin="round" d="M 19,21L 8,21L 8,7L 19,7M 19,5L 8,5C 6.9,5 6,5.9 6,7L 6,21C 6,22.1 6.9,23 8,23L 19,23C 20.1,23 21,22.1 21,21L 21,7C 21,5.9 20.1,5 19,5 Z M 16,1L 4,1C 2.9,1 2,1.9 2,3L 2,17L 4,17L 4,3L 16,3L 16,1 Z "/>
</svg>
