<?xml version="1.0" encoding="utf-8"?>
<!DOCTYPE svg PUBLIC "-//W3C//DTD SVG 1.1//EN" "http://www.w3.org/Graphics/SVG/1.1/DTD/svg11.dtd">
<svg xmlns="http://www.w3.org/2000/svg" xmlns:xlink="http://www.w3.org/1999/xlink" version="1.1" baseProfile="full" width="24" height="24" viewBox="0 0 24.00 24.00" enable-background="new 0 0 24.00 24.00" xml:space="preserve">
	<path fill="#000000" fill-opacity="1" stroke-width="1.33333" stroke-linejoin="miter" d="M 6,19C 6,20.1 6.9,21 8,21L 16,21C 17.1,21 18,20.1 18,19L 18,7L 6,7L 6,19 Z M 8.46,11.88L 9.87,10.47L 12,12.59L 14.12,10.47L 15.53,11.88L 13.41,14L 15.53,16.12L 14.12,17.53L 12,15.41L 9.88,17.53L 8.47,16.12L 10.59,14L 8.46,11.88 Z M 15.5,4L 14.5,3L 9.5,3L 8.5,4L 5,4L 5,6L 19,6L 19,4L 15.5,4 Z "/>
</svg>
