<?xml version="1.0" encoding="utf-8"?>
<!DOCTYPE svg PUBLIC "-//W3C//DTD SVG 1.1//EN" "http://www.w3.org/Graphics/SVG/1.1/DTD/svg11.dtd">
<svg xmlns="http://www.w3.org/2000/svg" xmlns:xlink="http://www.w3.org/1999/xlink" version="1.1" baseProfile="full" width="24" height="24" viewBox="0 0 24.00 24.00" enable-background="new 0 0 24.00 24.00" xml:space="preserve">
	<path fill="#000000" fill-opacity="1" stroke-width="0.2" stroke-linejoin="round" d="M 16.5,12C 18.9853,12 21,14.0147 21,16.5C 21,17.3826 20.7459,18.2059 20.3069,18.9006L 23.3906,21.9844L 21.9844,23.3906L 18.8763,20.3221C 18.1867,20.7518 17.3723,21 16.5,21C 14.0147,21 12,18.9853 12,16.5C 12,14.0147 14.0147,12 16.5,12 Z M 16.5,14C 15.1193,14 14,15.1193 14,16.5C 14,17.8807 15.1193,19 16.5,19C 17.8807,19 19,17.8807 19,16.5C 19,15.1193 17.8807,14 16.5,14 Z M 8.99936,3.99807L 10.9994,5.99807L 18.9994,5.99807C 20.1029,5.99807 20.9994,6.89406 20.9994,7.99807L 20.9994,11.809C 19.8315,10.6886 18.2462,10 16.5,10C 12.9101,10 10,12.9101 10,16.5C 10,17.7878 10.3745,18.9882 11.0206,19.9981L 2.99936,19.9981C 1.89436,19.9981 0.999362,19.1021 0.999362,17.9981L 1.00936,5.99807C 1.00936,4.89406 1.89436,3.99807 2.99936,3.99807L 8.99936,3.99807 Z "/>
</svg>
