<?xml version="1.0" encoding="utf-8"?>
<!DOCTYPE svg PUBLIC "-//W3C//DTD SVG 1.1//EN" "http://www.w3.org/Graphics/SVG/1.1/DTD/svg11.dtd">
<svg xmlns="http://www.w3.org/2000/svg" xmlns:xlink="http://www.w3.org/1999/xlink" version="1.1" baseProfile="full" width="24" height="24" viewBox="0 0 24.00 24.00" enable-background="new 0 0 24.00 24.00" xml:space="preserve">
	<path fill="#000000" fill-opacity="1" stroke-width="0.2" stroke-linejoin="round" d="M 9.5,3C 13.0899,3 16,5.91015 16,9.5C 16,11.1149 15.411,12.5923 14.4362,13.7291L 14.7071,14L 15.5,14L 20.5,19L 19,20.5L 14,15.5L 14,14.7071L 13.7291,14.4362C 12.5923,15.411 11.1149,16 9.5,16C 5.91015,16 3,13.0899 3,9.5C 3,5.91015 5.91015,3 9.5,3 Z M 9.5,5.00001C 7.01472,5.00001 5,7.01473 5,9.50001C 5,11.9853 7.01472,14 9.5,14C 11.9853,14 14,11.9853 14,9.50001C 14,7.01473 11.9853,5.00001 9.5,5.00001 Z "/>
</svg>
