<?xml version="1.0" encoding="UTF-8" standalone="no"?>
<!DOCTYPE svg PUBLIC "-//W3C//DTD SVG 1.1//EN" "http://www.w3.org/Graphics/SVG/1.1/DTD/svg11.dtd">
<svg width="100%" height="100%" viewBox="0 0 24 24" version="1.1" xmlns="http://www.w3.org/2000/svg" xmlns:xlink="http://www.w3.org/1999/xlink" xml:space="preserve" xmlns:serif="http://www.serif.com/" style="fill-rule:evenodd;clip-rule:evenodd;stroke-linejoin:round;stroke-miterlimit:1.41421;">
    <path d="M19,22L7,22C5.95,22 5,21.05 5,20L5,19L3,19L3,17L5,17L5,13L3,13L3,11L5,11L5,7L3,7L3,5L5,5L5,4C5,2.89 5.9,2 7,2L19,2C20.05,2 21,2.95 21,4L21,20C21,21.05 20.05,22 19,22ZM7,17L5,17L5,19L7,19L7,17ZM7,11L5,11L5,13L7,13L7,11ZM18.751,7.017L9.224,7.017L9.224,8.985L18.751,8.985L18.751,7.017ZM7,5L5,5L5,7L7,7L7,5Z" style="fill-rule:nonzero;"/>
</svg>
