<?xml version="1.0" encoding="utf-8"?>
<!DOCTYPE svg PUBLIC "-//W3C//DTD SVG 1.1//EN" "http://www.w3.org/Graphics/SVG/1.1/DTD/svg11.dtd">
<svg xmlns="http://www.w3.org/2000/svg" xmlns:xlink="http://www.w3.org/1999/xlink" version="1.1" baseProfile="full" width="24" height="24" viewBox="0 0 24.00 24.00" enable-background="new 0 0 24.00 24.00" xml:space="preserve">
	<path fill="#000000" fill-opacity="1" stroke-linejoin="round" d="M 14,3L 14,5L 17.59,5L 7.76,14.83L 9.17,16.24L 19,6.41L 19,10L 21,10L 21,3M 19,19L 5,19L 5,5L 12,5L 12,3L 5,3C 3.89,3 3,3.9 3,5L 3,19C 3,20.1 3.89,21 5,21L 19,21C 20.1,21 21,20.1 21,19L 21,12L 19,12L 19,19 Z "/>
</svg>
