<?xml version="1.0" encoding="utf-8"?>
<!DOCTYPE svg PUBLIC "-//W3C//DTD SVG 1.1//EN" "http://www.w3.org/Graphics/SVG/1.1/DTD/svg11.dtd">
<svg xmlns="http://www.w3.org/2000/svg" xmlns:xlink="http://www.w3.org/1999/xlink" version="1.1" baseProfile="full" width="24" height="24" viewBox="0 0 24.00 24.00" enable-background="new 0 0 24.00 24.00" xml:space="preserve">
	<path fill="#000000" fill-opacity="1" stroke-linejoin="round" d="M 16.5,6L 16.5,17.5C 16.5,19.71 14.71,21.5 12.5,21.5C 10.29,21.5 8.5,19.71 8.5,17.5L 8.5,5C 8.5,3.62 9.62,2.5 11,2.5C 12.38,2.5 13.5,3.62 13.5,5L 13.5,15.5C 13.5,16.05 13.05,16.5 12.5,16.5C 11.95,16.5 11.5,16.05 11.5,15.5L 11.5,6L 10,6L 10,15.5C 10,16.88 11.12,18 12.5,18C 13.88,18 15,16.88 15,15.5L 15,5C 15,2.79 13.21,1 11,1C 8.79,1 7,2.79 7,5L 7,17.5C 7,20.54 9.46,23 12.5,23C 15.54,23 18,20.54 18,17.5L 18,6L 16.5,6 Z "/>
</svg>
