<?xml version="1.0" encoding="UTF-8" standalone="no"?>
<!DOCTYPE svg PUBLIC "-//W3C//DTD SVG 1.1//EN" "http://www.w3.org/Graphics/SVG/1.1/DTD/svg11.dtd">
<svg width="100%" height="100%" viewBox="0 0 24 24" version="1.1" xmlns="http://www.w3.org/2000/svg" xmlns:xlink="http://www.w3.org/1999/xlink" xml:space="preserve" xmlns:serif="http://www.serif.com/" style="fill-rule:evenodd;clip-rule:evenodd;stroke-linejoin:round;stroke-miterlimit:1.41421;">
    <path d="M19.07,12.88L13,18.94L13,21L15.06,21L21.12,14.93L19.07,12.88ZM21.04,11.13C20.9,11.13 20.76,11.19 20.65,11.3L19.65,12.3L21.7,14.35L22.7,13.35C22.92,13.14 22.92,12.79 22.7,12.58L21.42,11.3C21.31,11.19 21.18,11.13 21.04,11.13Z"/>
    <path d="M11,19.458L11,19.458L11,19.458L11,19.458ZM12.111,16.999L12.111,16.999L11,18.11L11,19.458C6.436,19.075 2.613,16.094 1,12C2.73,7.61 7,4.5 12,4.5C15.464,4.5 18.578,5.993 20.74,8.37L20.737,8.373L17.003,12.107C17.003,12.107 17,12.035 17,12C17,9.257 14.743,7 12,7C9.257,7 7,9.257 7,12C7,14.743 9.257,17 12,17C12.037,17 12.074,17 12.111,16.999C12.111,16.999 12.111,16.999 12.111,16.999ZM12,9C10.354,9 9,10.354 9,12C9,13.646 10.354,15 12,15C13.646,15 15,13.646 15,12C15,10.354 13.646,9 12,9Z" style="fill-rule:nonzero;"/>
</svg>
