<?xml version="1.0" encoding="UTF-8" standalone="no"?>
<!DOCTYPE svg PUBLIC "-//W3C//DTD SVG 1.1//EN" "http://www.w3.org/Graphics/SVG/1.1/DTD/svg11.dtd">
<svg width="100%" height="100%" viewBox="0 0 24 24" version="1.1" xmlns="http://www.w3.org/2000/svg" xmlns:xlink="http://www.w3.org/1999/xlink" xml:space="preserve" xmlns:serif="http://www.serif.com/" style="fill-rule:evenodd;clip-rule:evenodd;stroke-linejoin:round;stroke-miterlimit:1.41421;">
    <path d="M17.41,11.58C17.774,11.942 17.999,12.444 17.999,12.999C17.999,13.551 17.776,14.05 17.414,14.413L12.414,19.413C12.052,19.774 11.552,19.999 10.999,19.999C10.448,19.999 9.948,19.775 9.585,19.413L2.587,12.415C2.224,12.053 1.999,11.552 1.999,10.999L1.999,6C1.999,4.895 2.895,4 3.999,4L8.999,3.999C9.552,3.999 10.052,4.222 10.414,4.584L17.41,11.58ZM13.536,5.706L14.536,4.706L21.411,11.581C21.775,11.943 22,12.445 22,13C22,13.552 21.777,14.051 21.415,14.414L16.036,19.793L15.036,18.793L20.75,13L13.536,5.706ZM11.016,18.685L16.598,13.104L10.556,7.062L5.003,12.672L11.016,18.685ZM5.499,9C6.328,9 6.999,8.327 6.999,7.5C6.999,6.671 6.328,6 5.499,6C4.671,6 3.999,6.671 3.999,7.5C3.999,8.327 4.671,9 5.499,9Z" style="fill-rule:nonzero;"/>
</svg>
