<?xml version="1.0" encoding="utf-8"?>
<!DOCTYPE svg PUBLIC "-//W3C//DTD SVG 1.1//EN" "http://www.w3.org/Graphics/SVG/1.1/DTD/svg11.dtd">
<svg xmlns="http://www.w3.org/2000/svg" xmlns:xlink="http://www.w3.org/1999/xlink" version="1.1" baseProfile="full" width="24" height="24" viewBox="0 0 24.00 24.00" enable-background="new 0 0 24.00 24.00" xml:space="preserve">
	<path fill="#000000" fill-opacity="1" stroke-width="1.33333" stroke-linejoin="miter" d="M 21.41,11.58L 12.41,2.58C 12.04,2.21 11.53,2 11,2L 4,2C 2.89543,2 2,2.8954 2,4L 2,11C 2,11.53 2.21,12.04 2.59,12.41L 3,12.81C 3.9,12.27 4.94,12 6,12C 9.31371,12 12,14.6863 12,18C 12,19.06 11.72,20.09 11.18,21L 11.58,21.4C 11.95,21.78 12.47,22 13,22C 13.53,22 14.04,21.79 14.41,21.41L 21.41,14.41C 21.79,14.04 22,13.53 22,13C 22,12.47 21.79,11.96 21.41,11.58M 5.5,7C 4.67157,7 4,6.3284 4,5.5C 4,4.6716 4.67157,4 5.5,4C 6.32843,4 7,4.6716 7,5.5C 7,6.3284 6.32843,7 5.5,7M 10,19L 2,19L 2,17L 10,17L 10,19 Z "/>
</svg>
