<?xml version="1.0" encoding="utf-8"?>
<!-- Generator: Adobe Illustrator 21.1.0, SVG Export Plug-In . SVG Version: 6.00 Build 0)  -->
<svg version="1.1" id="Layer_1" xmlns="http://www.w3.org/2000/svg" xmlns:xlink="http://www.w3.org/1999/xlink" x="0px" y="0px"
	 viewBox="0 0 24 24" style="enable-background:new 0 0 24 24;" xml:space="preserve">
<polyline points="21.4,3.2 20.1,1.9 2.9,19.2 4.2,20.4 7.5,17.1 "/>
<g>
	<g>
		<g>
			<path d="M21.4,11.6L16,6.1L6.1,16l5.5,5.5C12,21.8,12.5,22,13,22s1-0.2,1.4-0.6l7-7C21.8,14,22,13.5,22,13S21.8,11.9,21.4,11.6z"
				/>
		</g>
	</g>
	<g>
		<g>
			<path d="M12.4,2.6C12,2.2,11.5,2,11,2H4C2.9,2,2,2.9,2,4v7c0,0.5,0.2,1,0.6,1.4l2.3,2.3l9.8-9.8L12.4,2.6z M5.5,7
				C4.7,7,4,6.3,4,5.5S4.7,4,5.5,4S7,4.7,7,5.5S6.3,7,5.5,7z"/>
		</g>
	</g>
</g>
</svg>
