<?xml version="1.0" encoding="utf-8"?>
<!DOCTYPE svg PUBLIC "-//W3C//DTD SVG 1.1//EN" "http://www.w3.org/Graphics/SVG/1.1/DTD/svg11.dtd">
<svg xmlns="http://www.w3.org/2000/svg" xmlns:xlink="http://www.w3.org/1999/xlink" version="1.1" baseProfile="full" width="24" height="24" viewBox="0 0 24.00 24.00" enable-background="new 0 0 24.00 24.00" xml:space="preserve">
	<path fill="#000000" fill-opacity="1" stroke-width="0.2" stroke-linejoin="round" d="M 5.49888,6.99854C 6.32788,6.99854 6.99888,6.3265 6.99888,5.49854C 6.99888,4.6696 6.32788,3.99854 5.49888,3.99854C 4.67088,3.99854 3.99888,4.6696 3.99888,5.49854C 3.99888,6.3265 4.67088,6.99854 5.49888,6.99854 Z M 21.4099,11.5796C 21.7739,11.9416 21.9989,12.4436 21.9989,12.9986C 21.9989,13.5506 21.7759,14.0496 21.4139,14.4126L 14.4139,21.4126C 14.0519,21.7736 13.5519,21.9986 12.9989,21.9986C 12.4479,21.9986 11.9479,21.7746 11.5849,21.4126L 2.58687,12.4146C 2.22388,12.0526 1.99887,11.5516 1.99887,10.9986L 1.99887,3.99862C 1.99887,2.89364 2.89487,1.99862 3.99887,1.99862L 10.9989,1.99862C 11.5519,1.99862 12.0519,2.2216 12.4139,2.58366L 21.4099,11.5796 Z M 13,20L 20,13L 11.5,4.50001L 4.5,11.5L 13,20 Z "/>
</svg>
