<?xml version="1.0" encoding="utf-8"?>
<!DOCTYPE svg PUBLIC "-//W3C//DTD SVG 1.1//EN" "http://www.w3.org/Graphics/SVG/1.1/DTD/svg11.dtd">
<svg xmlns="http://www.w3.org/2000/svg" xmlns:xlink="http://www.w3.org/1999/xlink" version="1.1" baseProfile="full" width="24" height="24" viewBox="0 0 24.00 24.00" enable-background="new 0 0 24.00 24.00" xml:space="preserve">
	<path fill="#000000" fill-opacity="1" stroke-width="0.2" stroke-linejoin="round" d="M 5.49888,6.99854C 4.67088,6.99854 3.99888,6.32654 3.99888,5.49854C 3.99888,4.66956 4.67088,3.99854 5.49888,3.99854C 6.32788,3.99854 6.99888,4.66956 6.99888,5.49854C 6.99888,6.32654 6.32788,6.99854 5.49888,6.99854 Z M 21.4099,11.5796L 12.4139,2.58362C 12.0519,2.22162 11.5519,1.9986 10.9989,1.9986L 3.99887,1.9986C 2.89487,1.9986 1.99887,2.89362 1.99887,3.9986L 1.99887,10.9986C 1.99887,11.5516 2.22387,12.0526 2.58687,12.4146L 11.5849,21.4126C 11.9479,21.7746 12.4479,21.9986 12.9989,21.9986C 13.5519,21.9986 14.0519,21.7736 14.4139,21.4126L 21.4139,14.4126C 21.7759,14.0496 21.9989,13.5506 21.9989,12.9986C 21.9989,12.4436 21.7739,11.9416 21.4099,11.5796 Z "/>
</svg>
